<?xml version="1.0" encoding="UTF-8" standalone="no"?>
<svg
   width="48"
   height="48"
   version="1"
   id="svg16"
   xmlns="http://www.w3.org/2000/svg"
   xmlns:svg="http://www.w3.org/2000/svg">
  <defs
     id="defs20" />
  <g
     id="layer1"
     style="display:inline">
    <path
       id="rect2"
       style="display:inline;opacity:0.2"
       d="m 6,17 c -1.1079989,0 -2,0.892001 -2,2 v 22 c 0,1.107999 0.8920011,2 2,2 H 21.800781 A 16,16 0 0 1 19,34 16,16 0 0 1 35,18 16,16 0 0 1 44,20.775391 V 19 c 0,-1.107999 -0.892001,-2 -2,-2 z" />
    <path
       id="path4"
       style="display:inline;fill:#4877b1"
       d="M 6,6 C 4.8920011,6 4,6.8920011 4,8 v 26 c 0,1.107999 0.8920011,2 2,2 H 19.158203 A 16,16 0 0 1 19,34 16,16 0 0 1 35,18 16,16 0 0 1 44,20.779297 V 12 c 0,-1.107999 -0.892001,-2 -2,-2 H 24 C 21.000003,10 19.999997,6 17,6 Z" />
    <path
       id="rect6"
       style="display:inline;opacity:0.2"
       d="m 6,15 c -1.1079989,0 -2,0.892001 -2,2 v 22 c 0,1.107999 0.8920011,2 2,2 H 20.638672 A 16,16 0 0 1 19,34 16,16 0 0 1 35,18 16,16 0 0 1 44,20.775391 V 17 c 0,-1.107999 -0.892001,-2 -2,-2 z" />
    <path
       id="rect8"
       style="display:inline;fill:#e4e4e4"
       d="m 8,13 c -1.1079989,0 -2,0.892001 -2,2 v 12 c 0,1.107999 0.8920011,2 2,2 H 19.837891 A 16,16 0 0 1 35,18 16,16 0 0 1 42,19.615234 V 15 c 0,-1.107999 -0.892001,-2 -2,-2 z" />
    <path
       id="rect10"
       style="display:inline;fill:#5294e2"
       d="m 6,16 c -1.1079989,0 -2,0.892001 -2,2 v 22 c 0,1.107999 0.8920011,2 2,2 H 21.183594 A 16,16 0 0 1 19,34 16,16 0 0 1 35,18 16,16 0 0 1 44,20.775391 V 18 c 0,-1.107999 -0.892001,-2 -2,-2 z" />
    <path
       style="display:inline;opacity:0.1;fill:#ffffff"
       d="M 6,6 C 4.892,6 4,6.892 4,8 V 9 C 4,7.892 4.892,7 6,7 h 11 c 3,0 4,4 7,4 h 18 c 1.108,0 2,0.892 2,2 v -1 c 0,-1.108 -0.892,-2 -2,-2 H 24 C 21,10 20,6 17,6 Z"
       id="path12" />
  </g>
  <g
     id="layer4"
     style="display:inline"
     transform="translate(-0.49999997,-0.99999981)">
    <g
       id="layer15"
       transform="matrix(0.49999999,0,0,0.49999999,41.233963,21.6)"
       style="display:inline">
      <rect
         style="opacity:0.2"
         width="20"
         height="12"
         x="-9.467926"
         y="13.300001"
         rx="1"
         ry="1"
         id="rect5554" />
      <path
         style="fill:#5d399b"
         d="m -9.4679259,20.800001 c 0,0.554 0.446,1 1,1 H 9.5320748 c 0.5540002,0 1.0000002,-0.446 1.0000002,-1 V 9.8000009 c 0,-0.554 -0.446,-1 -1.0000002,-1 H 0.53207412 c -1.5,0 -2.00000002,-2 -3.50000002,-2 h -5.5 c -0.554,0 -1,0.446 -1,1"
         id="path5556" />
      <rect
         style="opacity:0.2"
         width="20"
         height="12"
         x="-9.467926"
         y="12.300001"
         rx="1"
         ry="1"
         id="rect5558" />
      <rect
         style="fill:#e4e4e4"
         width="16"
         height="8"
         x="-7.467926"
         y="10.800001"
         rx="1"
         ry="1"
         id="rect5560" />
      <rect
         style="fill:#7e57c2"
         width="20"
         height="12"
         x="-9.467926"
         y="12.800001"
         rx="1"
         ry="1"
         id="rect5562" />
      <path
         style="opacity:0.1;fill:#ffffff"
         d="m -8.4679259,6.8000009 c -0.554,0 -1,0.446 -1,1 v 0.5 c 0,-0.554 0.446,-1 1,-1 h 5.5 c 1.5,0 2.00000002,2 3.50000002,2 H 9.5320748 c 0.5540002,0 1.0000002,0.446 1.0000002,1.0000001 V 9.8000009 c 0,-0.554 -0.446,-1 -1.0000002,-1 H 0.53207412 c -1.5,0 -2.00000002,-2 -3.50000002,-2 z"
         id="path5564" />
    </g>
    <g
       id="layer11"
       transform="matrix(0.49999999,0,0,0.49999999,27.5,33.5)"
       style="display:inline">
      <rect
         style="opacity:0.2"
         width="20"
         height="12"
         x="18"
         y="11.499995"
         rx="1"
         ry="1"
         id="rect925" />
      <path
         style="fill:#60924b"
         d="m 17.999997,18.999999 c 0,0.554 0.446,1 1,1 h 18 c 0.554,0 1,-0.446 1,-1 v -11 c 0,-0.554 -0.446,-1 -1,-1 h -9 c -1.5,0 -2,-2 -3.5,-2 h -5.5 c -0.554,0 -1,0.446 -1,1"
         id="path927" />
      <rect
         style="opacity:0.2"
         width="20"
         height="12"
         x="18"
         y="10.499995"
         rx="1"
         ry="1"
         id="rect929" />
      <rect
         style="fill:#e4e4e4"
         width="16"
         height="8"
         x="20"
         y="9"
         rx="1"
         ry="1"
         id="rect931" />
      <rect
         style="fill:#87b158"
         width="20"
         height="12"
         x="18"
         y="10.999995"
         rx="1"
         ry="1"
         id="rect933" />
      <path
         style="opacity:0.1;fill:#ffffff"
         d="m 18.999997,4.999999 c -0.554,0 -1,0.446 -1,1 v 0.5 c 0,-0.554 0.446,-1 1,-1 h 5.5 c 1.5,0 2,2 3.5,2 h 9 c 0.554,0 1,0.446 1,1 v -0.5 c 0,-0.554 -0.446,-1 -1,-1 h -9 c -1.5,0 -2,-2 -3.5,-2 z"
         id="path935" />
    </g>
    <g
       id="layer10-2"
       style="display:inline"
       transform="matrix(0.49999999,0,0,0.49999999,31,35.499999)">
      <rect
         style="opacity:0.2"
         width="20"
         height="12"
         x="-13"
         y="7.4999971"
         rx="1"
         ry="1"
         id="rect2671" />
      <path
         style="fill:#e19d00"
         d="m -13,15.000001 c 0,0.554 0.446,1 1,1 H 5.9999997 c 0.554,0 1,-0.446 1,-1 V 4.0000009 c 0,-0.554 -0.446,-1 -1,-1 h -8.9999998 c -1.5,0 -2,-2 -3.5,-2 H -12 c -0.554,0 -1,0.446 -1,1"
         id="path2673" />
      <rect
         style="opacity:0.2"
         width="20"
         height="12"
         x="-13"
         y="6.5"
         rx="1"
         ry="1"
         id="rect2675" />
      <rect
         style="fill:#e4e4e4"
         width="16"
         height="8"
         x="-11"
         y="5.0000019"
         rx="1"
         ry="1"
         id="rect2677" />
      <rect
         style="fill:#f9bd30"
         width="20"
         height="12"
         x="-13"
         y="6.9999971"
         rx="1"
         ry="1"
         id="rect2679" />
      <path
         style="opacity:0.1;fill:#ffffff"
         d="m -12,1.0000009 c -0.554,0 -1,0.446 -1,1 v 0.5 c 0,-0.554 0.446,-1 1,-1 h 5.4999999 c 1.5,0 2,2 3.5,2 h 8.9999998 c 0.554,0 1,0.446 1,1 v -0.5 c 0,-0.554 -0.446,-1 -1,-1 h -8.9999998 c -1.5,0 -2,-2 -3.5,-2 z"
         id="path2681" />
    </g>
    <g
       id="layer12"
       transform="matrix(0.49999999,0,0,0.49999999,10.5,17)"
       style="display:inline">
      <rect
         style="display:inline;opacity:0.2"
         width="20"
         height="12"
         x="28"
         y="22.500011"
         rx="1"
         ry="1"
         id="rect2089" />
      <path
         style="display:inline;fill:#ec407a"
         d="m 28.000002,30.00001 c 0,0.554 0.446,1 1,1 h 18 c 0.554,0 1,-0.446 1,-1 v -11 c 0,-0.554 -0.446,-1 -1,-1 h -9 c -1.5,0 -2,-2 -3.5,-2 h -5.5 c -0.554,0 -1,0.446 -1,1"
         id="path2091" />
      <rect
         style="display:inline;opacity:0.2"
         width="20"
         height="12"
         x="28"
         y="21.5"
         rx="1"
         ry="1"
         id="rect2093" />
      <rect
         style="display:inline;fill:#e4e4e4"
         width="16"
         height="8"
         x="30"
         y="20"
         rx="1"
         ry="1"
         id="rect2095" />
      <rect
         style="display:inline;fill:#f06292"
         width="20"
         height="12"
         x="28"
         y="22"
         rx="1"
         ry="1"
         id="rect2097" />
      <path
         style="display:inline;opacity:0.1;fill:#ffffff"
         d="m 29.000002,16.00001 c -0.554,0 -1,0.446 -1,1 v 0.5 c 0,-0.554 0.446,-1 1,-1 h 5.5 c 1.5,0 2,2 3.5,2 h 9 c 0.554,0 1,0.446 1,1 v -0.5 c 0,-0.554 -0.446,-1 -1,-1 h -9 c -1.5,0 -2,-2 -3.5,-2 z"
         id="path2099" />
    </g>
  </g>
</svg>
