<?xml version="1.0" encoding="UTF-8" standalone="no"?>
<svg
   width="96"
   height="96"
   version="1"
   id="svg664"
   xmlns="http://www.w3.org/2000/svg"
   xmlns:svg="http://www.w3.org/2000/svg">
  <defs
     id="defs668" />
  <g
     id="g150"
     style="display:inline"
     transform="matrix(2.8041349,0,0,2.8041349,-18.557128,-21.638664)">
    <path
       id="rect144"
       style="display:inline;opacity:1;fill:#7e57c2;fill-opacity:1;fill-rule:evenodd;stroke:#cacdd0;stroke-width:0;stroke-linejoin:round;stroke-miterlimit:1;paint-order:markers fill stroke"
       d="m 10.871094,11.996094 c -0.775599,0 -1.4003909,0.624791 -1.4003909,1.40039 v 7 11.199219 4 c 0,0.775599 0.6247919,1.400391 1.4003909,1.400391 H 17 v -25 z" />
    <path
       id="rect142"
       style="display:inline;opacity:1;fill:#f06292;fill-opacity:1;fill-rule:evenodd;stroke:#cacdd0;stroke-width:0;stroke-linejoin:round;stroke-miterlimit:1;paint-order:markers fill stroke"
       d="m 16.603028,11.996094 v 25 h 9 v -22 h -1.529297 c -2.099994,0 -2.800397,-3 -4.900391,-3 z" />
    <path
       id="rect146"
       style="display:inline;opacity:1;fill:#f9bd30;fill-opacity:1;fill-rule:evenodd;stroke:#cacdd0;stroke-width:0;stroke-linejoin:round;stroke-miterlimit:1;paint-order:markers fill stroke"
       d="m 24,14.996094 v 22 h 7 v -22 z" />
    <path
       id="rect148"
       style="display:inline;opacity:1;fill:#87b158;fill-opacity:1;fill-rule:evenodd;stroke:#cacdd0;stroke-width:0;stroke-linejoin:round;stroke-miterlimit:1;paint-order:markers fill stroke"
       d="m 31,15 v 22 h 5.599609 C 37.375209,37 38,36.375209 38,35.599609 v -4 -11.199218 -4 C 38,15.624791 37.375609,15 36.599609,15 Z" />
  </g>
  <g
     id="layer6"
     style="display:inline"
     transform="matrix(2.8041349,0,0,2.8041349,-18.557128,-21.638664)">
    <path
       id="rect15840"
       style="display:inline;opacity:0.2"
       d="m 2,26.599609 v 1 C 2,28.375209 2.6247914,29 3.4003906,29 H 28.599609 C 29.375209,29 30,28.375209 30,27.599609 v -1 C 30,27.375209 29.375209,28 28.599609,28 H 3.4003906 C 2.6247914,28 2,27.375209 2,26.599609 Z"
       transform="translate(8,9)" />
    <path
       id="rect15844"
       style="display:inline;opacity:0.2"
       d="M 3.4003906,9 C 2.6247914,9 2,9.6247914 2,10.400391 v 1 C 2,10.624791 2.6247914,10 3.4003906,10 H 28.599609 C 29.375209,10 30,10.624791 30,11.400391 v -1 C 30,9.6247914 29.375209,9 28.599609,9 Z"
       transform="translate(8,9)" />
    <path
       id="rect15846"
       style="display:inline;fill:#e4e4e4"
       d="M 5.4003906,8 C 4.6247914,8 4,8.6247914 4,9.4003906 V 10 H 28 V 9.4003906 C 28,8.6247914 27.375209,8 26.599609,8 Z"
       transform="translate(8,9)" />
    <path
       style="display:inline;opacity:0.1;fill:#ffffff"
       d="M 3.4004,3 C 2.6248,3 2,3.6248 2,4.4004 v 1 C 2,4.6248 2.6248,4 3.4004,4 H 11.1 c 2.1,0 2.8,3 4.9,3 H 28.6 C 29.375,7 30,7.6248 30,8.4004 v -1 C 30,6.6248 29.375,6 28.6,6 H 16 C 13.9,6 13.2,3 11.1,3 Z"
       id="path15850"
       transform="translate(8,9)" />
  </g>
</svg>
