<?xml version="1.0" encoding="UTF-8" standalone="no"?>
<svg
   width="48"
   height="48"
   version="1"
   id="svg16"
   xmlns="http://www.w3.org/2000/svg"
   xmlns:svg="http://www.w3.org/2000/svg">
  <defs
     id="defs20" />
  <g
     id="layer1">
    <path
       id="rect2"
       style="display:inline;opacity:0.2"
       d="m 6,17 c -1.1079989,0 -2,0.892001 -2,2 v 22 c 0,1.107999 0.8920011,2 2,2 H 21.800781 A 16,16 0 0 1 19,34 16,16 0 0 1 35,18 16,16 0 0 1 44,20.775391 V 19 c 0,-1.107999 -0.892001,-2 -2,-2 z" />
    <path
       id="path4"
       style="display:inline;fill:#4877b1"
       d="M 6,6 C 4.8920011,6 4,6.8920011 4,8 v 26 c 0,1.107999 0.8920011,2 2,2 H 19.158203 A 16,16 0 0 1 19,34 16,16 0 0 1 35,18 16,16 0 0 1 44,20.779297 V 12 c 0,-1.107999 -0.892001,-2 -2,-2 H 24 C 21.000003,10 19.999997,6 17,6 Z" />
    <path
       id="rect6"
       style="display:inline;opacity:0.2"
       d="m 6,15 c -1.1079989,0 -2,0.892001 -2,2 v 22 c 0,1.107999 0.8920011,2 2,2 H 20.638672 A 16,16 0 0 1 19,34 16,16 0 0 1 35,18 16,16 0 0 1 44,20.775391 V 17 c 0,-1.107999 -0.892001,-2 -2,-2 z" />
    <path
       id="rect8"
       style="display:inline;fill:#e4e4e4"
       d="m 8,13 c -1.1079989,0 -2,0.892001 -2,2 v 12 c 0,1.107999 0.8920011,2 2,2 H 19.837891 A 16,16 0 0 1 35,18 16,16 0 0 1 42,19.615234 V 15 c 0,-1.107999 -0.892001,-2 -2,-2 z" />
    <path
       id="rect10"
       style="display:inline;fill:#5294e2"
       d="m 6,16 c -1.1079989,0 -2,0.892001 -2,2 v 22 c 0,1.107999 0.8920011,2 2,2 H 21.183594 A 16,16 0 0 1 19,34 16,16 0 0 1 35,18 16,16 0 0 1 44,20.775391 V 18 c 0,-1.107999 -0.892001,-2 -2,-2 z" />
    <path
       style="display:inline;opacity:0.1;fill:#ffffff"
       d="M 6,6 C 4.892,6 4,6.892 4,8 V 9 C 4,7.892 4.892,7 6,7 h 11 c 3,0 4,4 7,4 h 18 c 1.108,0 2,0.892 2,2 v -1 c 0,-1.108 -0.892,-2 -2,-2 H 24 C 21,10 20,6 17,6 Z"
       id="path12" />
  </g>
  <g
     id="layer2"
     transform="rotate(60,32.294229,33.901924)">
    <circle
       style="fill:#a544c9;fill-opacity:1;fill-rule:evenodd;stroke-width:0;stroke-linejoin:round;stroke-miterlimit:1;paint-order:markers fill stroke"
       id="path307"
       cx="34.267948"
       cy="22.679493"
       r="4" />
    <circle
       style="fill:#fa3e30;fill-opacity:1;fill-rule:evenodd;stroke-width:0;stroke-linejoin:round;stroke-miterlimit:1;paint-order:markers fill stroke"
       id="path307-7"
       cx="25.937822"
       cy="27.107695"
       r="4" />
    <circle
       style="fill:#fb8300;fill-opacity:1;fill-rule:evenodd;stroke-width:0;stroke-linejoin:round;stroke-miterlimit:1;paint-order:markers fill stroke"
       id="path307-1"
       cx="26.267948"
       cy="36.5359"
       r="4" />
    <circle
       style="fill:#ffc107;fill-opacity:1;fill-rule:evenodd;stroke-width:0;stroke-linejoin:round;stroke-miterlimit:1;paint-order:markers fill stroke"
       id="path307-3"
       cx="34.062176"
       cy="41.0359"
       r="4" />
    <circle
       style="fill:#009688;fill-opacity:1;fill-rule:evenodd;stroke-width:0;stroke-linejoin:round;stroke-miterlimit:1;paint-order:markers fill stroke"
       id="path307-18"
       cx="41.526279"
       cy="36.107697"
       r="4" />
    <circle
       style="fill:#03a9f4;fill-opacity:1;fill-rule:evenodd;stroke-width:0;stroke-linejoin:round;stroke-miterlimit:1;paint-order:markers fill stroke"
       id="path307-36"
       cx="42.062176"
       cy="27.179493"
       r="4" />
  </g>
</svg>
