<?xml version="1.0" encoding="UTF-8" standalone="no"?>
<svg
   width="48"
   height="48"
   version="1"
   id="svg16"
   xmlns="http://www.w3.org/2000/svg"
   xmlns:svg="http://www.w3.org/2000/svg">
  <defs
     id="defs20" />
  <g
     id="layer1">
    <path
       id="rect2"
       style="display:inline;opacity:0.2"
       d="m 6,17 c -1.1079989,0 -2,0.892001 -2,2 v 22 c 0,1.107999 0.8920011,2 2,2 H 21.800781 A 16,16 0 0 1 19,34 16,16 0 0 1 35,18 16,16 0 0 1 44,20.775391 V 19 c 0,-1.107999 -0.892001,-2 -2,-2 z" />
    <path
       id="path4"
       style="display:inline;fill:#4877b1"
       d="M 6,6 C 4.8920011,6 4,6.8920011 4,8 v 26 c 0,1.107999 0.8920011,2 2,2 H 19.158203 A 16,16 0 0 1 19,34 16,16 0 0 1 35,18 16,16 0 0 1 44,20.779297 V 12 c 0,-1.107999 -0.892001,-2 -2,-2 H 24 C 21.000003,10 19.999997,6 17,6 Z" />
    <path
       id="rect6"
       style="display:inline;opacity:0.2"
       d="m 6,15 c -1.1079989,0 -2,0.892001 -2,2 v 22 c 0,1.107999 0.8920011,2 2,2 H 20.638672 A 16,16 0 0 1 19,34 16,16 0 0 1 35,18 16,16 0 0 1 44,20.775391 V 17 c 0,-1.107999 -0.892001,-2 -2,-2 z" />
    <path
       id="rect8"
       style="display:inline;fill:#e4e4e4"
       d="m 8,13 c -1.1079989,0 -2,0.892001 -2,2 v 12 c 0,1.107999 0.8920011,2 2,2 H 19.837891 A 16,16 0 0 1 35,18 16,16 0 0 1 42,19.615234 V 15 c 0,-1.107999 -0.892001,-2 -2,-2 z" />
    <path
       id="rect10"
       style="display:inline;fill:#5294e2"
       d="m 6,16 c -1.1079989,0 -2,0.892001 -2,2 v 22 c 0,1.107999 0.8920011,2 2,2 H 21.183594 A 16,16 0 0 1 19,34 16,16 0 0 1 35,18 16,16 0 0 1 44,20.775391 V 18 c 0,-1.107999 -0.892001,-2 -2,-2 z" />
    <path
       style="display:inline;opacity:0.1;fill:#ffffff"
       d="M 6,6 C 4.892,6 4,6.892 4,8 V 9 C 4,7.892 4.892,7 6,7 h 11 c 3,0 4,4 7,4 h 18 c 1.108,0 2,0.892 2,2 v -1 c 0,-1.108 -0.892,-2 -2,-2 H 24 C 21,10 20,6 17,6 Z"
       id="path12" />
  </g>
  <g
     id="layer3"
     transform="translate(1.0000009)"
     style="display:inline">
    <path
       style="display:inline;opacity:0.2"
       d="M 33.999319,19 A 6.3530557,7 0 0 0 28.228368,23.089844 7.0450169,6.3124607 28.096451 0 0 21.771702,26 a 7.0450169,6.3124607 28.096451 0 0 0.687669,7 6.3124607,7.0450169 61.903549 0 0 -0.687669,7 6.3124607,7.0450169 61.903549 0 0 6.456666,2.912109 A 6.3530556,7 0 0 0 33.999319,47 a 6.3530556,7 0 0 0 5.77095,-4.089844 c 2.688969,0.35668 5.210407,-0.779488 6.454713,-2.910156 1.282653,-2.202662 0.91826,-4.934658 -0.685716,-7.001953 a 6.3124607,7.0450169 61.903549 0 0 0.398536,-0.566406 6.3124604,7.045017 61.90355 0 0 0,-0.002 6.3124607,7.0450169 61.903549 0 0 0.337974,-0.589844 6.3124604,7.045017 61.90355 0 0 0.0059,-0.01172 6.3124607,7.0450169 61.903549 0 0 0.269597,-0.603516 6.3124604,7.045017 61.90355 0 0 0.0039,-0.0098 6.3124607,7.0450169 61.903549 0 0 0.195361,-0.587891 6.3124604,7.045017 61.90355 0 0 0.01758,-0.05664 6.3124607,7.0450169 61.903549 0 0 0.128938,-0.578124 6.3124604,7.045017 61.90355 0 0 0.01367,-0.07227 6.3124607,7.0450169 61.903549 0 0 0.06447,-0.533203 6.3124604,7.045017 61.90355 0 0 0.0098,-0.144531 6.3124607,7.0450169 61.903549 0 0 0.0059,-0.472657 6.3124604,7.045017 61.90355 0 0 -0.0059,-0.197265 6.3124607,7.0450169 61.903549 0 0 -0.03907,-0.41211 6.3124604,7.045017 61.90355 0 0 -0.03321,-0.232422 6.3124607,7.0450169 61.903549 0 0 -0.08017,-0.384773 6.3124604,7.045017 61.90355 0 0 -0.06057,-0.238281 6.3124607,7.0450169 61.903549 0 0 -0.123058,-0.378813 6.3124604,7.045017 61.90355 0 0 -0.08205,-0.214843 A 6.3124607,7.0450169 61.903549 0 0 46.418389,26.376953 6.3124604,7.045017 61.90355 0 0 46.224982,26 6.3124607,7.0450169 61.903549 0 0 45.929987,25.552734 6.3124604,7.045017 61.90355 0 0 45.73072,25.296875 a 6.3124607,7.0450169 61.903549 0 0 -0.199268,-0.240234 6.3124604,7.045017 61.90355 0 0 -0.218804,-0.22461 6.3124607,7.0450169 61.903549 0 0 -0.234432,-0.224609 6.3124604,7.045017 61.90355 0 0 -0.248108,-0.205078 6.3124607,7.0450169 61.903549 0 0 -0.246155,-0.189453 6.3124604,7.045017 61.90355 0 0 -0.277411,-0.183594 6.3124607,7.0450169 61.903549 0 0 -0.273505,-0.166016 6.3124604,7.045017 61.90355 0 0 -0.277413,-0.144531 6.3124607,7.0450169 61.903549 0 0 -0.31453,-0.150391 6.3124604,7.045017 61.90355 0 0 -0.289133,-0.113281 6.3124607,7.0450169 61.903549 0 0 -0.318438,-0.113281 6.3124604,7.045017 61.90355 0 0 -0.302809,-0.08594 6.3124607,7.0450169 61.903549 0 0 -0.35751,-0.08789 6.3124604,7.045017 61.90355 0 0 -0.291087,-0.05078 6.3124607,7.0450169 61.903549 0 0 -0.365324,-0.05273 6.3124604,7.045017 61.90355 0 0 -0.574361,-0.04297 6.3124607,7.0450169 61.903549 0 0 -1.174116,0.06641 A 6.3530557,7 0 0 0 33.999319,19 Z"
       id="path2710"
       transform="translate(0,1)" />
    <ellipse
       style="display:inline;fill:#278df2"
       cx="33.999123"
       cy="32"
       rx="11.292"
       ry="11.2"
       id="ellipse2712"
       transform="translate(0,1)" />
    <ellipse
       id="ellipse8-1"
       style="display:inline;fill:#34e0c4"
       cx="44.666199"
       cy="-20.329973"
       rx="6.3130002"
       ry="7.0430002"
       transform="matrix(0.50305568,0.86425401,-0.86777886,0.49695055,0,1)" />
    <ellipse
       id="ellipse10-1"
       style="display:inline;fill:#ffc107"
       cx="33.999123"
       cy="39"
       rx="6.3509998"
       ry="7"
       transform="translate(0,1)" />
    <ellipse
       id="ellipse14-4"
       style="display:inline;fill:#fb8300"
       cx="44.666199"
       cy="-6.2439742"
       rx="6.3130002"
       ry="7.0430002"
       transform="matrix(0.50305568,0.86425401,-0.86777886,0.49695055,0,1)" />
    <ellipse
       id="ellipse18-7"
       style="display:inline;fill:#fa3e30"
       cx="10.873414"
       cy="38.440155"
       rx="6.3130002"
       ry="7.0430002"
       transform="matrix(-0.50305568,0.86425401,0.86777886,0.49695055,0,1)" />
    <path
       style="display:inline;fill:#a544c9"
       d="m 33.999317,18 a 6.351493,7 0 0 0 -6.351494,7 6.351493,7 0 0 0 6.351494,7 6.3121154,7.0436691 61.849933 0 1 2.93591,-8.956445 6.3121154,7.0436691 61.849933 0 1 2.832534,-0.954297 A 6.351493,7 0 0 0 33.999317,18 Z m 0,14 A 6.351493,7 0 0 0 40.036543,27.158789 6.351493,7 0 0 1 39.183336,29.027734 7.0436691,6.3121154 28.150067 0 0 33.999317,32 Z m 6.037226,-4.841211 a 6.351493,7 0 0 0 0.152999,-0.617969 6.351493,7 0 0 1 -0.152999,0.617969 z m -0.194349,-4.883594 a 6.351493,7 0 0 1 0.212267,0.638477 6.351493,7 0 0 0 -0.212267,-0.638477 z m 0.221916,0.667188 a 6.351493,7 0 0 1 0.129567,0.55371 6.351493,7 0 0 0 -0.129567,-0.55371 z m 0.165403,0.724609 a 6.351493,7 0 0 1 0.06202,0.447071 6.351493,7 0 0 0 -0.06202,-0.447071 z m 0.09235,0.725976 A 6.351493,7 0 0 1 40.350809,25 6.351493,7 0 0 0 40.321867,24.392968 Z m 0.01516,0.916016 a 6.351493,7 0 0 1 -0.02757,0.459375 6.351493,7 0 0 0 0.02757,-0.459375 z m -0.04962,0.620704 a 6.351493,7 0 0 1 -0.0827,0.542773 6.351493,7 0 0 0 0.0827,-0.542773 z"
       id="path2718"
       transform="translate(0,1)" />
    <path
       style="display:inline;fill:#009688"
       d="M 39.2812,29.020899 C 37.024155,29.084236 35.047694,30.199004 33.999317,32 c 3.507832,0 6.351492,3.134006 6.351492,7 -0.0025,1.005129 -0.201335,1.99788 -0.583048,2.910742 C 42.456804,42.268237 44.978329,41.131187 46.222632,39 47.976913,35.986685 46.662415,31.976607 43.28672,30.043555 42.055086,29.338488 40.658924,28.982031 39.2812,29.020899 Z m 0.486561,12.889843 z M 33.999317,32 Z"
       id="path2720"
       transform="translate(0,1)" />
    <path
       id="ellipse980-8"
       style="display:inline;fill:#03a9f4"
       d="m 40.941438,22.020898 a 6.3121154,7.0436691 61.849933 0 0 -4.005866,1.023341 6.3121154,7.0436691 61.849933 0 0 -2.935911,8.955419 c 1.048439,-1.800755 3.024665,-2.915427 5.281539,-2.97876 1.377724,-0.03886 2.773886,0.31759 4.00552,1.022657 0.907413,0.519619 1.664345,1.190215 2.254313,1.950293 A 6.3121154,7.0436691 61.849933 0 0 46.222976,25 6.3121154,7.0436691 61.849933 0 0 40.941438,22.020898 Z M 33.999661,32 a 6.3121154,7.0436691 61.849933 0 0 5.193324,2.972607 C 38.043411,33.175209 36.146624,32.000126 33.999661,32 Z"
       transform="translate(0,1)" />
    <path
       style="display:inline;fill:#ffc107"
       d="m 33.999661,31.999658 c -10.94706,11.200228 -5.47353,5.600114 0,0 z m 0,3.42e-4 c 1.11441,2.263715 3.03075,3.24385 5.193324,2.972607 C 38.043411,33.175209 36.146624,32.000126 33.999661,32 Z"
       id="path2723"
       transform="translate(0,1)" />
    <path
       id="ellipse845"
       style="display:inline;opacity:0.2;fill:#ffffff"
       d="M 34.000123,18 A 6.3530557,7 0 0 0 28.228639,22.089844 7.0450169,6.3124607 28.096451 0 0 21.771608,25 7.0450169,6.3124607 28.096451 0 0 21.025514,28.367188 7.0450169,6.3124607 28.096451 0 1 21.771608,26 7.0450169,6.3124607 28.096451 0 1 28.228639,23.089844 6.3530557,7 0 0 1 34.000123,19 a 6.3530557,7 0 0 1 5.767578,4.087891 6.3124607,7.0450169 61.903549 0 1 1.173828,-0.06641 6.3124604,7.045017 61.90355 0 1 0.576172,0.04297 6.3124607,7.0450169 61.903549 0 1 0.365234,0.05273 6.3124604,7.045017 61.90355 0 1 0.291016,0.05078 6.3124607,7.0450169 61.903549 0 1 0.357422,0.08789 6.3124604,7.045017 61.90355 0 1 0.302734,0.08594 6.3124607,7.0450169 61.903549 0 1 0.31836,0.113281 6.3124604,7.045017 61.90355 0 1 0.289062,0.113281 6.3124607,7.0450169 61.903549 0 1 0.314453,0.150391 6.3124604,7.045017 61.90355 0 1 0.277344,0.144531 6.3124607,7.0450169 61.903549 0 1 0.273438,0.166016 6.3124604,7.045017 61.90355 0 1 0.277343,0.183593 6.3124607,7.0450169 61.903549 0 1 0.246094,0.189454 6.3124604,7.045017 61.90355 0 1 0.248047,0.205078 6.3124607,7.0450169 61.903549 0 1 0.234375,0.224609 6.3124604,7.045017 61.90355 0 1 0.21875,0.224609 6.3124607,7.0450169 61.903549 0 1 0.199219,0.240235 6.3124604,7.045017 61.90355 0 1 0.199219,0.255859 A 6.3124607,7.0450169 61.903549 0 1 46.224732,26 a 6.3124604,7.045017 61.90355 0 1 0.19336,0.376953 6.3124607,7.0450169 61.903549 0 1 0.148437,0.333985 6.3124604,7.045017 61.90355 0 1 0.08203,0.214843 6.3124607,7.0450169 61.903549 0 1 0.123046,0.378907 6.3124604,7.045017 61.90355 0 1 0.06055,0.238281 6.3124607,7.0450169 61.903549 0 1 0.08008,0.384765 6.3124604,7.045017 61.90355 0 1 0.0332,0.232422 6.3124607,7.0450169 61.903549 0 1 0.02539,0.263672 6.3124607,7.0450169 61.903549 0 0 0.0039,-0.03711 6.3124604,7.045017 61.90355 0 0 0.0098,-0.144531 6.3124607,7.0450169 61.903549 0 0 0.0059,-0.472657 6.3124604,7.045017 61.90355 0 0 -0.0059,-0.197265 6.3124607,7.0450169 61.903549 0 0 -0.03906,-0.41211 6.3124604,7.045017 61.90355 0 0 -0.0332,-0.232422 6.3124607,7.0450169 61.903549 0 0 -0.08008,-0.384765 6.3124604,7.045017 61.90355 0 0 -0.06055,-0.238281 6.3124607,7.0450169 61.903549 0 0 -0.123074,-0.378906 6.3124604,7.045017 61.90355 0 0 -0.08203,-0.214843 A 6.3124607,7.0450169 61.903549 0 0 46.418092,25.376953 6.3124604,7.045017 61.90355 0 0 46.224732,25 a 6.3124607,7.0450169 61.903549 0 0 -0.294921,-0.447266 6.3124604,7.045017 61.90355 0 0 -0.199219,-0.255859 6.3124607,7.0450169 61.903549 0 0 -0.199219,-0.240234 6.3124604,7.045017 61.90355 0 0 -0.21875,-0.22461 6.3124607,7.0450169 61.903549 0 0 -0.234375,-0.224609 6.3124604,7.045017 61.90355 0 0 -0.248047,-0.205078 6.3124607,7.0450169 61.903549 0 0 -0.246094,-0.189453 6.3124604,7.045017 61.90355 0 0 -0.277343,-0.183594 6.3124607,7.0450169 61.903549 0 0 -0.273438,-0.166016 6.3124604,7.045017 61.90355 0 0 -0.277344,-0.144531 6.3124607,7.0450169 61.903549 0 0 -0.314453,-0.150391 6.3124604,7.045017 61.90355 0 0 -0.289062,-0.113281 6.3124607,7.0450169 61.903549 0 0 -0.31836,-0.113281 6.3124604,7.045017 61.90355 0 0 -0.302734,-0.08594 6.3124607,7.0450169 61.903549 0 0 -0.357422,-0.08789 6.3124604,7.045017 61.90355 0 0 -0.291016,-0.05078 6.3124607,7.0450169 61.903549 0 0 -0.365234,-0.05273 6.3124604,7.045017 61.90355 0 0 -0.576172,-0.04297 6.3124607,7.0450169 61.903549 0 0 -1.173828,0.06641 A 6.3530557,7 0 0 0 34.000123,18 Z M 22.109498,32.496094 A 6.3124607,7.0450169 61.903549 0 0 21.027467,36.580078 6.3124607,7.0450169 61.903549 0 1 22.459108,33 7.0450169,6.3124607 28.096451 0 1 22.109498,32.496094 Z m 23.775391,0.01367 a 6.3124607,7.0450169 61.903549 0 1 -0.345704,0.488281 c 0.829036,1.068508 1.319216,2.315435 1.429688,3.574219 0.110295,-1.393912 -0.277137,-2.818285 -1.083984,-4.0625 z"
       transform="translate(0,1)" />
  </g>
</svg>
