<?xml version="1.0" encoding="UTF-8" standalone="no"?>
<svg
   width="96"
   height="96"
   version="1"
   id="svg664"
   xmlns="http://www.w3.org/2000/svg"
   xmlns:svg="http://www.w3.org/2000/svg">
  <defs
     id="defs668" />
  <g
     id="layer8"
     style="display:inline"
     transform="scale(2)">
    <rect
       style="opacity:1;fill:#f06292;fill-opacity:1;fill-rule:evenodd;stroke:#cacdd0;stroke-width:0;stroke-linejoin:round;stroke-miterlimit:1;paint-order:markers fill stroke"
       id="rect9463"
       width="8.999999"
       height="26.999998"
       x="16"
       y="11.000001" />
    <rect
       style="opacity:1;fill:#7e57c2;fill-opacity:1;fill-rule:evenodd;stroke:#cacdd0;stroke-width:0;stroke-linejoin:round;stroke-miterlimit:1;paint-order:markers fill stroke"
       id="rect9461"
       width="7.999999"
       height="26.999998"
       x="9.000001"
       y="11.000001" />
    <rect
       style="opacity:1;fill:#f9bd30;fill-opacity:1;fill-rule:evenodd;stroke:#cacdd0;stroke-width:0;stroke-linejoin:round;stroke-miterlimit:1;paint-order:markers fill stroke"
       id="rect9465"
       width="6.999999"
       height="26.999998"
       x="24"
       y="11.000001" />
    <rect
       style="opacity:1;fill:#87b158;fill-opacity:1;fill-rule:evenodd;stroke:#cacdd0;stroke-width:0;stroke-linejoin:round;stroke-miterlimit:1;paint-order:markers fill stroke"
       id="rect9467"
       width="7.999999"
       height="26.999998"
       x="31"
       y="11.000001" />
  </g>
  <g
     id="layer6"
     style="display:inline"
     transform="scale(2)">
    <path
       id="rect638"
       style="display:inline;fill:#cacdd0;fill-opacity:1"
       d="M 6,4 C 4.8920011,4 4,4.8920011 4,6 v 36 c 0,1.107999 0.8920011,2 2,2 h 36 c 1.107999,0 2,-0.892001 2,-2 V 6 C 44,4.8920011 43.107999,4 42,4 Z m 5.400391,8 h 7.699218 C 21.199605,12 21.900004,15 24,15 H 36.599609 C 37.375609,15 38,15.624791 38,16.400391 v 4 11.199218 4 C 38,36.375209 37.375209,37 36.599609,37 H 11.400391 C 10.624791,37 10,36.375209 10,35.599609 v -4 -11.199218 -7 C 10,12.624791 10.624791,12 11.400391,12 Z" />
    <path
       fill="#ffffff"
       opacity="0.1"
       d="M 6,4 C 4.892,4 4,4.892 4,6 V 7 C 4,5.892 4.892,5 6,5 h 36 c 1.108,0 2,0.892 2,2 V 6 C 44,4.892 43.108,4 42,4 Z"
       id="path640"
       style="display:inline" />
    <path
       opacity="0.2"
       d="M 6,45 C 4.892,45 4,44.108 4,43 v -1 c 0,1.108 0.892,2 2,2 h 36 c 1.108,0 2,-0.892 2,-2 v 1 c 0,1.108 -0.892,2 -2,2 z"
       id="path642"
       style="display:inline;fill:#ffffff;fill-opacity:1;opacity:0.2" />
    <path
       id="rect15840"
       style="display:inline;opacity:0.2"
       d="m 2,26.599609 v 1 C 2,28.375209 2.6247914,29 3.4003906,29 H 28.599609 C 29.375209,29 30,28.375209 30,27.599609 v -1 C 30,27.375209 29.375209,28 28.599609,28 H 3.4003906 C 2.6247914,28 2,27.375209 2,26.599609 Z"
       transform="translate(8,9)" />
    <path
       id="rect15844"
       style="display:inline;opacity:0.2"
       d="M 3.4003906,9 C 2.6247914,9 2,9.6247914 2,10.400391 v 1 C 2,10.624791 2.6247914,10 3.4003906,10 H 28.599609 C 29.375209,10 30,10.624791 30,11.400391 v -1 C 30,9.6247914 29.375209,9 28.599609,9 Z"
       transform="translate(8,9)" />
    <path
       id="rect15846"
       style="display:inline;fill:#e4e4e4"
       d="M 5.4003906,8 C 4.6247914,8 4,8.6247914 4,9.4003906 V 10 H 28 V 9.4003906 C 28,8.6247914 27.375209,8 26.599609,8 Z"
       transform="translate(8,9)" />
    <path
       style="display:inline;opacity:0.1;fill:#ffffff"
       d="M 3.4004,3 C 2.6248,3 2,3.6248 2,4.4004 v 1 C 2,4.6248 2.6248,4 3.4004,4 H 11.1 c 2.1,0 2.8,3 4.9,3 H 28.6 C 29.375,7 30,7.6248 30,8.4004 v -1 C 30,6.6248 29.375,6 28.6,6 H 16 C 13.9,6 13.2,3 11.1,3 Z"
       id="path15850"
       transform="translate(8,9)" />
  </g>
</svg>
