<?xml version="1.0" encoding="UTF-8" standalone="no"?>
<svg
   width="48"
   height="48"
   version="1"
   id="svg16"
   xmlns="http://www.w3.org/2000/svg"
   xmlns:svg="http://www.w3.org/2000/svg">
  <defs
     id="defs20" />
  <g
     id="layer1"
     style="display:inline">
    <path
       id="rect2"
       style="display:inline;opacity:0.2"
       d="m 6,17 c -1.1079989,0 -2,0.892001 -2,2 v 22 c 0,1.107999 0.8920011,2 2,2 H 21.800781 A 16,16 0 0 1 19,34 16,16 0 0 1 35,18 16,16 0 0 1 44,20.775391 V 19 c 0,-1.107999 -0.892001,-2 -2,-2 z" />
    <path
       id="path4"
       style="display:inline;fill:#4877b1"
       d="M 6,6 C 4.8920011,6 4,6.8920011 4,8 v 26 c 0,1.107999 0.8920011,2 2,2 H 19.158203 A 16,16 0 0 1 19,34 16,16 0 0 1 35,18 16,16 0 0 1 44,20.779297 V 12 c 0,-1.107999 -0.892001,-2 -2,-2 H 24 C 21.000003,10 19.999997,6 17,6 Z" />
    <path
       id="rect6"
       style="display:inline;opacity:0.2"
       d="m 6,15 c -1.1079989,0 -2,0.892001 -2,2 v 22 c 0,1.107999 0.8920011,2 2,2 H 20.638672 A 16,16 0 0 1 19,34 16,16 0 0 1 35,18 16,16 0 0 1 44,20.775391 V 17 c 0,-1.107999 -0.892001,-2 -2,-2 z" />
    <path
       id="rect8"
       style="display:inline;fill:#e4e4e4"
       d="m 8,13 c -1.1079989,0 -2,0.892001 -2,2 v 12 c 0,1.107999 0.8920011,2 2,2 H 19.837891 A 16,16 0 0 1 35,18 16,16 0 0 1 42,19.615234 V 15 c 0,-1.107999 -0.892001,-2 -2,-2 z" />
    <path
       id="rect10"
       style="display:inline;fill:#5294e2"
       d="m 6,16 c -1.1079989,0 -2,0.892001 -2,2 v 22 c 0,1.107999 0.8920011,2 2,2 H 21.183594 A 16,16 0 0 1 19,34 16,16 0 0 1 35,18 16,16 0 0 1 44,20.775391 V 18 c 0,-1.107999 -0.892001,-2 -2,-2 z" />
    <path
       style="display:inline;opacity:0.1;fill:#ffffff"
       d="M 6,6 C 4.892,6 4,6.892 4,8 V 9 C 4,7.892 4.892,7 6,7 h 11 c 3,0 4,4 7,4 h 18 c 1.108,0 2,0.892 2,2 v -1 c 0,-1.108 -0.892,-2 -2,-2 H 24 C 21,10 20,6 17,6 Z"
       id="path12" />
  </g>
  <g
     id="layer3"
     transform="translate(1.0000009)"
     style="display:none">
    <path
       style="display:inline;opacity:0.2"
       d="M 33.999319,19 A 6.3530557,7 0 0 0 28.228368,23.089844 7.0450169,6.3124607 28.096451 0 0 21.771702,26 a 7.0450169,6.3124607 28.096451 0 0 0.687669,7 6.3124607,7.0450169 61.903549 0 0 -0.687669,7 6.3124607,7.0450169 61.903549 0 0 6.456666,2.912109 A 6.3530556,7 0 0 0 33.999319,47 a 6.3530556,7 0 0 0 5.77095,-4.089844 c 2.688969,0.35668 5.210407,-0.779488 6.454713,-2.910156 1.282653,-2.202662 0.91826,-4.934658 -0.685716,-7.001953 a 6.3124607,7.0450169 61.903549 0 0 0.398536,-0.566406 6.3124604,7.045017 61.90355 0 0 0,-0.002 6.3124607,7.0450169 61.903549 0 0 0.337974,-0.589844 6.3124604,7.045017 61.90355 0 0 0.0059,-0.01172 6.3124607,7.0450169 61.903549 0 0 0.269597,-0.603516 6.3124604,7.045017 61.90355 0 0 0.0039,-0.0098 6.3124607,7.0450169 61.903549 0 0 0.195361,-0.587891 6.3124604,7.045017 61.90355 0 0 0.01758,-0.05664 6.3124607,7.0450169 61.903549 0 0 0.128938,-0.578124 6.3124604,7.045017 61.90355 0 0 0.01367,-0.07227 6.3124607,7.0450169 61.903549 0 0 0.06447,-0.533203 6.3124604,7.045017 61.90355 0 0 0.0098,-0.144531 6.3124607,7.0450169 61.903549 0 0 0.0059,-0.472657 6.3124604,7.045017 61.90355 0 0 -0.0059,-0.197265 6.3124607,7.0450169 61.903549 0 0 -0.03907,-0.41211 6.3124604,7.045017 61.90355 0 0 -0.03321,-0.232422 6.3124607,7.0450169 61.903549 0 0 -0.08017,-0.384773 6.3124604,7.045017 61.90355 0 0 -0.06057,-0.238281 6.3124607,7.0450169 61.903549 0 0 -0.123058,-0.378813 6.3124604,7.045017 61.90355 0 0 -0.08205,-0.214843 A 6.3124607,7.0450169 61.903549 0 0 46.418389,26.376953 6.3124604,7.045017 61.90355 0 0 46.224982,26 6.3124607,7.0450169 61.903549 0 0 45.929987,25.552734 6.3124604,7.045017 61.90355 0 0 45.73072,25.296875 a 6.3124607,7.0450169 61.903549 0 0 -0.199268,-0.240234 6.3124604,7.045017 61.90355 0 0 -0.218804,-0.22461 6.3124607,7.0450169 61.903549 0 0 -0.234432,-0.224609 6.3124604,7.045017 61.90355 0 0 -0.248108,-0.205078 6.3124607,7.0450169 61.903549 0 0 -0.246155,-0.189453 6.3124604,7.045017 61.90355 0 0 -0.277411,-0.183594 6.3124607,7.0450169 61.903549 0 0 -0.273505,-0.166016 6.3124604,7.045017 61.90355 0 0 -0.277413,-0.144531 6.3124607,7.0450169 61.903549 0 0 -0.31453,-0.150391 6.3124604,7.045017 61.90355 0 0 -0.289133,-0.113281 6.3124607,7.0450169 61.903549 0 0 -0.318438,-0.113281 6.3124604,7.045017 61.90355 0 0 -0.302809,-0.08594 6.3124607,7.0450169 61.903549 0 0 -0.35751,-0.08789 6.3124604,7.045017 61.90355 0 0 -0.291087,-0.05078 6.3124607,7.0450169 61.903549 0 0 -0.365324,-0.05273 6.3124604,7.045017 61.90355 0 0 -0.574361,-0.04297 6.3124607,7.0450169 61.903549 0 0 -1.174116,0.06641 A 6.3530557,7 0 0 0 33.999319,19 Z"
       id="path2710"
       transform="translate(0,1)" />
    <ellipse
       style="display:inline;fill:#278df2"
       cx="33.999123"
       cy="32"
       rx="11.292"
       ry="11.2"
       id="ellipse2712"
       transform="translate(0,1)" />
    <ellipse
       id="ellipse8-1"
       style="display:inline;fill:#34e0c4"
       cx="44.666199"
       cy="-20.329973"
       rx="6.3130002"
       ry="7.0430002"
       transform="matrix(0.50305568,0.86425401,-0.86777886,0.49695055,0,1)" />
    <ellipse
       id="ellipse10-1"
       style="display:inline;fill:#ffc107"
       cx="33.999123"
       cy="39"
       rx="6.3509998"
       ry="7"
       transform="translate(0,1)" />
    <ellipse
       id="ellipse14-4"
       style="display:inline;fill:#fb8300"
       cx="44.666199"
       cy="-6.2439742"
       rx="6.3130002"
       ry="7.0430002"
       transform="matrix(0.50305568,0.86425401,-0.86777886,0.49695055,0,1)" />
    <ellipse
       id="ellipse18-7"
       style="display:inline;fill:#fa3e30"
       cx="10.873414"
       cy="38.440155"
       rx="6.3130002"
       ry="7.0430002"
       transform="matrix(-0.50305568,0.86425401,0.86777886,0.49695055,0,1)" />
    <path
       style="display:inline;fill:#a544c9"
       d="m 33.999317,18 a 6.351493,7 0 0 0 -6.351494,7 6.351493,7 0 0 0 6.351494,7 6.3121154,7.0436691 61.849933 0 1 2.93591,-8.956445 6.3121154,7.0436691 61.849933 0 1 2.832534,-0.954297 A 6.351493,7 0 0 0 33.999317,18 Z m 0,14 A 6.351493,7 0 0 0 40.036543,27.158789 6.351493,7 0 0 1 39.183336,29.027734 7.0436691,6.3121154 28.150067 0 0 33.999317,32 Z m 6.037226,-4.841211 a 6.351493,7 0 0 0 0.152999,-0.617969 6.351493,7 0 0 1 -0.152999,0.617969 z m -0.194349,-4.883594 a 6.351493,7 0 0 1 0.212267,0.638477 6.351493,7 0 0 0 -0.212267,-0.638477 z m 0.221916,0.667188 a 6.351493,7 0 0 1 0.129567,0.55371 6.351493,7 0 0 0 -0.129567,-0.55371 z m 0.165403,0.724609 a 6.351493,7 0 0 1 0.06202,0.447071 6.351493,7 0 0 0 -0.06202,-0.447071 z m 0.09235,0.725976 A 6.351493,7 0 0 1 40.350809,25 6.351493,7 0 0 0 40.321867,24.392968 Z m 0.01516,0.916016 a 6.351493,7 0 0 1 -0.02757,0.459375 6.351493,7 0 0 0 0.02757,-0.459375 z m -0.04962,0.620704 a 6.351493,7 0 0 1 -0.0827,0.542773 6.351493,7 0 0 0 0.0827,-0.542773 z"
       id="path2718"
       transform="translate(0,1)" />
    <path
       style="display:inline;fill:#009688"
       d="M 39.2812,29.020899 C 37.024155,29.084236 35.047694,30.199004 33.999317,32 c 3.507832,0 6.351492,3.134006 6.351492,7 -0.0025,1.005129 -0.201335,1.99788 -0.583048,2.910742 C 42.456804,42.268237 44.978329,41.131187 46.222632,39 47.976913,35.986685 46.662415,31.976607 43.28672,30.043555 42.055086,29.338488 40.658924,28.982031 39.2812,29.020899 Z m 0.486561,12.889843 z M 33.999317,32 Z"
       id="path2720"
       transform="translate(0,1)" />
    <path
       id="ellipse980-8"
       style="display:inline;fill:#03a9f4"
       d="m 40.941438,22.020898 a 6.3121154,7.0436691 61.849933 0 0 -4.005866,1.023341 6.3121154,7.0436691 61.849933 0 0 -2.935911,8.955419 c 1.048439,-1.800755 3.024665,-2.915427 5.281539,-2.97876 1.377724,-0.03886 2.773886,0.31759 4.00552,1.022657 0.907413,0.519619 1.664345,1.190215 2.254313,1.950293 A 6.3121154,7.0436691 61.849933 0 0 46.222976,25 6.3121154,7.0436691 61.849933 0 0 40.941438,22.020898 Z M 33.999661,32 a 6.3121154,7.0436691 61.849933 0 0 5.193324,2.972607 C 38.043411,33.175209 36.146624,32.000126 33.999661,32 Z"
       transform="translate(0,1)" />
    <path
       style="display:inline;fill:#ffc107"
       d="m 33.999661,31.999658 c -10.94706,11.200228 -5.47353,5.600114 0,0 z m 0,3.42e-4 c 1.11441,2.263715 3.03075,3.24385 5.193324,2.972607 C 38.043411,33.175209 36.146624,32.000126 33.999661,32 Z"
       id="path2723"
       transform="translate(0,1)" />
    <path
       id="ellipse845"
       style="display:inline;opacity:0.2;fill:#ffffff"
       d="M 34.000123,18 A 6.3530557,7 0 0 0 28.228639,22.089844 7.0450169,6.3124607 28.096451 0 0 21.771608,25 7.0450169,6.3124607 28.096451 0 0 21.025514,28.367188 7.0450169,6.3124607 28.096451 0 1 21.771608,26 7.0450169,6.3124607 28.096451 0 1 28.228639,23.089844 6.3530557,7 0 0 1 34.000123,19 a 6.3530557,7 0 0 1 5.767578,4.087891 6.3124607,7.0450169 61.903549 0 1 1.173828,-0.06641 6.3124604,7.045017 61.90355 0 1 0.576172,0.04297 6.3124607,7.0450169 61.903549 0 1 0.365234,0.05273 6.3124604,7.045017 61.90355 0 1 0.291016,0.05078 6.3124607,7.0450169 61.903549 0 1 0.357422,0.08789 6.3124604,7.045017 61.90355 0 1 0.302734,0.08594 6.3124607,7.0450169 61.903549 0 1 0.31836,0.113281 6.3124604,7.045017 61.90355 0 1 0.289062,0.113281 6.3124607,7.0450169 61.903549 0 1 0.314453,0.150391 6.3124604,7.045017 61.90355 0 1 0.277344,0.144531 6.3124607,7.0450169 61.903549 0 1 0.273438,0.166016 6.3124604,7.045017 61.90355 0 1 0.277343,0.183593 6.3124607,7.0450169 61.903549 0 1 0.246094,0.189454 6.3124604,7.045017 61.90355 0 1 0.248047,0.205078 6.3124607,7.0450169 61.903549 0 1 0.234375,0.224609 6.3124604,7.045017 61.90355 0 1 0.21875,0.224609 6.3124607,7.0450169 61.903549 0 1 0.199219,0.240235 6.3124604,7.045017 61.90355 0 1 0.199219,0.255859 A 6.3124607,7.0450169 61.903549 0 1 46.224732,26 a 6.3124604,7.045017 61.90355 0 1 0.19336,0.376953 6.3124607,7.0450169 61.903549 0 1 0.148437,0.333985 6.3124604,7.045017 61.90355 0 1 0.08203,0.214843 6.3124607,7.0450169 61.903549 0 1 0.123046,0.378907 6.3124604,7.045017 61.90355 0 1 0.06055,0.238281 6.3124607,7.0450169 61.903549 0 1 0.08008,0.384765 6.3124604,7.045017 61.90355 0 1 0.0332,0.232422 6.3124607,7.0450169 61.903549 0 1 0.02539,0.263672 6.3124607,7.0450169 61.903549 0 0 0.0039,-0.03711 6.3124604,7.045017 61.90355 0 0 0.0098,-0.144531 6.3124607,7.0450169 61.903549 0 0 0.0059,-0.472657 6.3124604,7.045017 61.90355 0 0 -0.0059,-0.197265 6.3124607,7.0450169 61.903549 0 0 -0.03906,-0.41211 6.3124604,7.045017 61.90355 0 0 -0.0332,-0.232422 6.3124607,7.0450169 61.903549 0 0 -0.08008,-0.384765 6.3124604,7.045017 61.90355 0 0 -0.06055,-0.238281 6.3124607,7.0450169 61.903549 0 0 -0.123074,-0.378906 6.3124604,7.045017 61.90355 0 0 -0.08203,-0.214843 A 6.3124607,7.0450169 61.903549 0 0 46.418092,25.376953 6.3124604,7.045017 61.90355 0 0 46.224732,25 a 6.3124607,7.0450169 61.903549 0 0 -0.294921,-0.447266 6.3124604,7.045017 61.90355 0 0 -0.199219,-0.255859 6.3124607,7.0450169 61.903549 0 0 -0.199219,-0.240234 6.3124604,7.045017 61.90355 0 0 -0.21875,-0.22461 6.3124607,7.0450169 61.903549 0 0 -0.234375,-0.224609 6.3124604,7.045017 61.90355 0 0 -0.248047,-0.205078 6.3124607,7.0450169 61.903549 0 0 -0.246094,-0.189453 6.3124604,7.045017 61.90355 0 0 -0.277343,-0.183594 6.3124607,7.0450169 61.903549 0 0 -0.273438,-0.166016 6.3124604,7.045017 61.90355 0 0 -0.277344,-0.144531 6.3124607,7.0450169 61.903549 0 0 -0.314453,-0.150391 6.3124604,7.045017 61.90355 0 0 -0.289062,-0.113281 6.3124607,7.0450169 61.903549 0 0 -0.31836,-0.113281 6.3124604,7.045017 61.90355 0 0 -0.302734,-0.08594 6.3124607,7.0450169 61.903549 0 0 -0.357422,-0.08789 6.3124604,7.045017 61.90355 0 0 -0.291016,-0.05078 6.3124607,7.0450169 61.903549 0 0 -0.365234,-0.05273 6.3124604,7.045017 61.90355 0 0 -0.576172,-0.04297 6.3124607,7.0450169 61.903549 0 0 -1.173828,0.06641 A 6.3530557,7 0 0 0 34.000123,18 Z M 22.109498,32.496094 A 6.3124607,7.0450169 61.903549 0 0 21.027467,36.580078 6.3124607,7.0450169 61.903549 0 1 22.459108,33 7.0450169,6.3124607 28.096451 0 1 22.109498,32.496094 Z m 23.775391,0.01367 a 6.3124607,7.0450169 61.903549 0 1 -0.345704,0.488281 c 0.829036,1.068508 1.319216,2.315435 1.429688,3.574219 0.110295,-1.393912 -0.277137,-2.818285 -1.083984,-4.0625 z"
       transform="translate(0,1)" />
  </g>
  <g
     id="layer4"
     style="display:none"
     transform="translate(-0.49999997,-0.99999981)">
    <g
       id="layer15"
       transform="matrix(0.49999999,0,0,0.49999999,41.233963,21.6)"
       style="display:inline">
      <rect
         style="opacity:0.2"
         width="20"
         height="12"
         x="-21.467926"
         y="4.8000002"
         rx="1"
         ry="1"
         id="rect5554" />
      <path
         style="fill:#5d399b"
         d="m -21.467926,12.3 c 0,0.554 0.446,1 1,1 h 18.0000007 c 0.5540001,0 1,-0.446 1,-1 V 1.3000001 c 0,-0.554 -0.4459999,-1 -1,-1 h -9.0000007 c -1.5,0 -2,-2 -3.5,-2 h -5.5 c -0.554,0 -1,0.446 -1,1"
         id="path5556" />
      <rect
         style="opacity:0.2"
         width="20"
         height="12"
         x="-21.467926"
         y="3.8"
         rx="1"
         ry="1"
         id="rect5558" />
      <rect
         style="fill:#e4e4e4"
         width="16"
         height="8"
         x="-19.467926"
         y="2.3"
         rx="1"
         ry="1"
         id="rect5560" />
      <rect
         style="fill:#7e57c2"
         width="20"
         height="12"
         x="-21.467926"
         y="4.3000002"
         rx="1"
         ry="1"
         id="rect5562" />
      <path
         style="opacity:0.1;fill:#ffffff"
         d="m -20.467926,-1.6999999 c -0.554,0 -1,0.446 -1,1 v 0.5 c 0,-0.554 0.446,-1 1,-1 h 5.5 c 1.5,0 2,2 3.5,2 h 9.0000007 c 0.5540001,0 1,0.446 1,1 v -0.5 c 0,-0.554 -0.4459999,-1 -1,-1 h -9.0000007 c -1.5,0 -2,-2 -3.5,-2 z"
         id="path5564" />
    </g>
    <g
       id="layer18"
       transform="matrix(0.49999999,0,0,0.49999999,37,15.500004)"
       style="display:inline">
      <rect
         style="opacity:0.2"
         width="20"
         height="12"
         x="3"
         y="25.499992"
         rx="1"
         ry="1"
         id="rect5149" />
      <path
         style="fill:#0096aa"
         d="m 3.0000005,32.999992 c 0,0.554 0.446,1 1,1 H 22 c 0.554,0 1,-0.446 1,-1 v -11 c 0,-0.554 -0.446,-1 -1,-1 h -9 c -1.5,0 -2,-2 -3.4999998,-2 H 4.0000005 c -0.554,0 -1,0.446 -1,1"
         id="path5151" />
      <rect
         style="opacity:0.2"
         width="20"
         height="12"
         x="3"
         y="24.499992"
         rx="1"
         ry="1"
         id="rect5153" />
      <rect
         style="fill:#e4e4e4"
         width="16"
         height="8"
         x="4.999999"
         y="22.999992"
         rx="1"
         ry="1"
         id="rect5155" />
      <rect
         style="fill:#00bcd4"
         width="20"
         height="12"
         x="3"
         y="24.999992"
         rx="1"
         ry="1"
         id="rect5157" />
      <path
         style="opacity:0.1;fill:#ffffff"
         d="m 4.0000005,18.999992 c -0.554,0 -1,0.446 -1,1 v 0.5 c 0,-0.554 0.446,-1 1,-1 h 5.4999997 c 1.4999998,0 1.9999998,2 3.4999998,2 h 9 c 0.554,0 1,0.446 1,1 v -0.5 c 0,-0.554 -0.446,-1 -1,-1 h -9 c -1.5,0 -2,-2 -3.4999998,-2 z"
         id="path5159" />
    </g>
    <g
       id="layer11"
       transform="matrix(0.49999999,0,0,0.49999999,27.5,33.5)"
       style="display:inline">
      <rect
         style="opacity:0.2"
         width="20"
         height="12"
         x="22.000004"
         y="5.4999962"
         rx="1"
         ry="1"
         id="rect925" />
      <path
         style="fill:#60924b"
         d="m 22,13 c 0,0.554 0.446,1 1,1 h 18 c 0.554,0 1,-0.446 1,-1 V 2 C 42,1.446 41.554,1 41,1 H 32 C 30.5,1 30,-1 28.5,-1 H 23 c -0.554,0 -1,0.446 -1,1"
         id="path927" />
      <rect
         style="opacity:0.2"
         width="20"
         height="12"
         x="22.000004"
         y="4.4999962"
         rx="1"
         ry="1"
         id="rect929" />
      <rect
         style="fill:#e4e4e4"
         width="16"
         height="8"
         x="24.000004"
         y="3.000001"
         rx="1"
         ry="1"
         id="rect931" />
      <rect
         style="fill:#87b158"
         width="20"
         height="12"
         x="22.000004"
         y="4.9999962"
         rx="1"
         ry="1"
         id="rect933" />
      <path
         style="opacity:0.1;fill:#ffffff"
         d="m 23,-1 c -0.554,0 -1,0.446 -1,1 v 0.5 c 0,-0.554 0.446,-1 1,-1 h 5.5 c 1.5,0 2,2 3.5,2 h 9 c 0.554,0 1,0.446 1,1 V 2 C 42,1.446 41.554,1 41,1 h -9 c -1.5,0 -2,-2 -3.5,-2 z"
         id="path935" />
    </g>
    <g
       id="layer10-2"
       style="display:inline"
       transform="matrix(0.49999999,0,0,0.49999999,31,35.499999)">
      <rect
         style="opacity:0.2"
         width="20"
         height="12"
         x="-0.99999952"
         y="9.4999962"
         rx="1"
         ry="1"
         id="rect2671" />
      <path
         style="fill:#e19d00"
         d="m -0.9999998,17 c 0,0.554 0.44600005,1 1.0000001,1 H 18 c 0.554,0 1,-0.446 1,-1 V 6 C 19,5.446 18.554,5 18,5 H 9.0000002 c -1.5,0 -2,-2 -3.5,-2 H 3e-7 c -0.55400005,0 -1.0000001,0.446 -1.0000001,1"
         id="path2673" />
      <rect
         style="opacity:0.2"
         width="20"
         height="12"
         x="-0.99999952"
         y="8.499999"
         rx="1"
         ry="1"
         id="rect2675" />
      <rect
         style="fill:#e4e4e4"
         width="16"
         height="8"
         x="1.0000004"
         y="7.000001"
         rx="1"
         ry="1"
         id="rect2677" />
      <rect
         style="fill:#f9bd30"
         width="20"
         height="12"
         x="-0.99999952"
         y="8.9999962"
         rx="1"
         ry="1"
         id="rect2679" />
      <path
         style="opacity:0.1;fill:#ffffff"
         d="m 3e-7,3 c -0.55400005,0 -1.0000001,0.446 -1.0000001,1 v 0.5 c 0,-0.554 0.44600005,-1 1.0000001,-1 h 5.4999999 c 1.5,0 2,2 3.5,2 H 18 c 0.554,0 1,0.446 1,1 V 6 C 19,5.446 18.554,5 18,5 H 9.0000002 c -1.5,0 -2,-2 -3.5,-2 z"
         id="path2681" />
    </g>
    <g
       id="layer17"
       style="display:inline"
       transform="matrix(0.49999999,0,0,0.49999999,10,19)">
      <rect
         style="opacity:0.2"
         width="20"
         height="12"
         x="25"
         y="34.5"
         rx="1"
         ry="1"
         id="rect5284" />
      <path
         style="fill:#b34a00;fill-opacity:1"
         d="m 25.000001,42 c 0,0.554 0.446,1 1,1 h 18 c 0.554,0 1,-0.446 1,-1 V 31 c 0,-0.554 -0.446,-1 -1,-1 h -9 c -1.5,0 -2,-2 -3.5,-2 h -5.5 c -0.554,0 -1,0.446 -1,1"
         id="path5286" />
      <rect
         style="opacity:0.2"
         width="20"
         height="12"
         x="25"
         y="33.5"
         rx="1"
         ry="1"
         id="rect5288" />
      <rect
         style="fill:#e4e4e4"
         width="16"
         height="8"
         x="27"
         y="32"
         rx="1"
         ry="1"
         id="rect5290" />
      <rect
         style="fill:#fb6700;fill-opacity:1"
         width="20"
         height="12"
         x="25"
         y="34"
         rx="1"
         ry="1"
         id="rect5292" />
      <path
         style="opacity:0.1;fill:#ffffff"
         d="m 26.000001,28 c -0.554,0 -1,0.446 -1,1 v 0.5 c 0,-0.554 0.446,-1 1,-1 h 5.5 c 1.5,0 2,2 3.5,2 h 9 c 0.554,0 1,0.446 1,1 V 31 c 0,-0.554 -0.446,-1 -1,-1 h -9 c -1.5,0 -2,-2 -3.5,-2 z"
         id="path5294" />
    </g>
    <g
       id="layer12"
       transform="matrix(0.49999999,0,0,0.49999999,10.5,17)"
       style="display:inline">
      <rect
         style="display:inline;opacity:0.2"
         width="20"
         height="12"
         x="24"
         y="22.500002"
         rx="1"
         ry="1"
         id="rect2089" />
      <path
         style="display:inline;fill:#ec407a"
         d="m 24,30 c 0,0.554 0.446,1 1,1 h 18 c 0.554,0 1,-0.446 1,-1 V 19 c 0,-0.554 -0.446,-1 -1,-1 h -9 c -1.5,0 -2,-2 -3.5,-2 H 25 c -0.554,0 -1,0.446 -1,1"
         id="path2091" />
      <rect
         style="display:inline;opacity:0.2"
         width="20"
         height="12"
         x="24"
         y="21.49999"
         rx="1"
         ry="1"
         id="rect2093" />
      <rect
         style="display:inline;fill:#e4e4e4"
         width="16"
         height="8"
         x="26"
         y="19.99999"
         rx="1"
         ry="1"
         id="rect2095" />
      <rect
         style="display:inline;fill:#f06292"
         width="20"
         height="12"
         x="24"
         y="21.99999"
         rx="1"
         ry="1"
         id="rect2097" />
      <path
         style="display:inline;opacity:0.1;fill:#ffffff"
         d="m 25,16 c -0.554,0 -1,0.446 -1,1 v 0.5 c 0,-0.554 0.446,-1 1,-1 h 5.5 c 1.5,0 2,2 3.5,2 h 9 c 0.554,0 1,0.446 1,1 V 19 c 0,-0.554 -0.446,-1 -1,-1 h -9 c -1.5,0 -2,-2 -3.5,-2 z"
         id="path2099" />
    </g>
    <g
       id="g1465"
       transform="matrix(0.49999999,0,0,0.49999999,41.233963,21.6)"
       style="display:inline">
      <path
         id="rect1453"
         style="display:inline;opacity:0.2"
         d="m -20.467926,4.7999997 c -0.554,0 -1,0.4460006 -1,1 V 15.8 c 0,0.553999 0.446,1 1,1 h 7 V 4.7999997 Z" />
      <path
         id="path1455"
         style="display:inline;fill:#5d399b"
         d="m -20.467926,-1.7000004 c -0.554,0 -1,0.4460006 -1,1.00000001 V 12.3 c 0,0.553999 0.446,1 1,1 h 7 V -0.9421879 c -0.423217,-0.4061819 -0.873692,-0.7578125 -1.5,-0.7578125 z" />
      <path
         id="rect1457"
         style="display:inline;opacity:0.2"
         d="m -20.467926,3.7999997 c -0.554,0 -1,0.4460006 -1,1 V 14.8 c 0,0.553999 0.446,1 1,1 h 7 V 3.7999997 Z" />
      <path
         id="rect1459"
         style="display:inline;fill:#e4e4e4"
         d="m -18.467926,2.2999997 c -0.554,0 -1,0.4460005 -1,1 v 6.0000001 c 0,0.5539995 0.446,1.0000002 1,1.0000002 h 5 V 2.2999997 Z" />
      <path
         id="rect1461"
         style="display:inline;fill:#7e57c2"
         d="m -20.467926,4.2999997 c -0.554,0 -1,0.4460006 -1,1 V 15.3 c 0,0.553999 0.446,1 1,1 h 7 V 4.2999997 Z" />
      <path
         id="path1463"
         style="display:inline;opacity:0.1;fill:#ffffff"
         d="m -20.467926,-1.7000004 c -0.554,0 -1,0.4460006 -1,1.00000001 v 0.50000001 c 0,-0.55399945 0.446,-1.00000002 1,-1.00000002 h 5.5 c 0.626308,0 1.076783,0.35163061 1.5,0.75781251 V -0.9421879 c -0.423217,-0.4061819 -0.873692,-0.7578125 -1.5,-0.7578125 z" />
    </g>
  </g>
  <g
     id="g1710"
     style="display:inline"
     transform="translate(-0.49999976,-1.9999998)">
    <g
       id="g1624"
       transform="matrix(0.49999999,0,0,0.49999999,40.233963,23.85)"
       style="display:inline">
      <rect
         style="opacity:0.2"
         width="20"
         height="12"
         x="-21.467926"
         y="4.8000002"
         rx="1"
         ry="1"
         id="rect1612" />
      <path
         style="fill:#5d399b"
         d="m -21.467926,12.3 c 0,0.554 0.446,1 1,1 h 18.0000007 c 0.5540001,0 1,-0.446 1,-1 V 1.3000001 c 0,-0.554 -0.4459999,-1 -1,-1 h -9.0000007 c -1.5,0 -2,-2 -3.5,-2 h -5.5 c -0.554,0 -1,0.446 -1,1"
         id="path1614" />
      <rect
         style="opacity:0.2"
         width="20"
         height="12"
         x="-21.467926"
         y="3.8"
         rx="1"
         ry="1"
         id="rect1616" />
      <rect
         style="fill:#e4e4e4"
         width="16"
         height="8"
         x="-19.467926"
         y="2.3"
         rx="1"
         ry="1"
         id="rect1618" />
      <rect
         style="fill:#7e57c2"
         width="20"
         height="12"
         x="-21.467926"
         y="4.3000002"
         rx="1"
         ry="1"
         id="rect1620" />
      <path
         style="opacity:0.1;fill:#ffffff"
         d="m -20.467926,-1.6999999 c -0.554,0 -1,0.446 -1,1 v 0.5 c 0,-0.554 0.446,-1 1,-1 h 5.5 c 1.5,0 2,2 3.5,2 h 9.0000007 c 0.5540001,0 1,0.446 1,1 v -0.5 c 0,-0.554 -0.4459999,-1 -1,-1 h -9.0000007 c -1.5,0 -2,-2 -3.5,-2 z"
         id="path1622" />
    </g>
    <g
       id="g1638"
       transform="matrix(0.49999999,0,0,0.49999999,36,16.500004)"
       style="display:inline">
      <rect
         style="opacity:0.2"
         width="20"
         height="12"
         x="3"
         y="25.499992"
         rx="1"
         ry="1"
         id="rect1626" />
      <path
         style="fill:#0096aa"
         d="m 3.0000005,32.999992 c 0,0.554 0.446,1 1,1 H 22 c 0.554,0 1,-0.446 1,-1 v -11 c 0,-0.554 -0.446,-1 -1,-1 h -9 c -1.5,0 -2,-2 -3.4999998,-2 H 4.0000005 c -0.554,0 -1,0.446 -1,1"
         id="path1628" />
      <rect
         style="opacity:0.2"
         width="20"
         height="12"
         x="3"
         y="24.499992"
         rx="1"
         ry="1"
         id="rect1630" />
      <rect
         style="fill:#e4e4e4"
         width="16"
         height="8"
         x="4.999999"
         y="22.999992"
         rx="1"
         ry="1"
         id="rect1632" />
      <rect
         style="fill:#00bcd4"
         width="20"
         height="12"
         x="3"
         y="24.999992"
         rx="1"
         ry="1"
         id="rect1634" />
      <path
         style="opacity:0.1;fill:#ffffff"
         d="m 4.0000005,18.999992 c -0.554,0 -1,0.446 -1,1 v 0.5 c 0,-0.554 0.446,-1 1,-1 h 5.4999997 c 1.4999998,0 1.9999998,2 3.4999998,2 h 9 c 0.554,0 1,0.446 1,1 v -0.5 c 0,-0.554 -0.446,-1 -1,-1 h -9 c -1.5,0 -2,-2 -3.4999998,-2 z"
         id="path1636" />
    </g>
    <g
       id="g1652"
       transform="matrix(0.49999999,0,0,0.49999999,27.499998,33.499999)"
       style="display:inline">
      <rect
         style="opacity:0.2"
         width="20"
         height="12"
         x="22.000004"
         y="5.4999962"
         rx="1"
         ry="1"
         id="rect1640" />
      <path
         style="fill:#60924b"
         d="m 22,13 c 0,0.554 0.446,1 1,1 h 18 c 0.554,0 1,-0.446 1,-1 V 2 C 42,1.446 41.554,1 41,1 H 32 C 30.5,1 30,-1 28.5,-1 H 23 c -0.554,0 -1,0.446 -1,1"
         id="path1642" />
      <rect
         style="opacity:0.2"
         width="20"
         height="12"
         x="22.000004"
         y="4.4999962"
         rx="1"
         ry="1"
         id="rect1644" />
      <rect
         style="fill:#e4e4e4"
         width="16"
         height="8"
         x="24.000004"
         y="3.000001"
         rx="1"
         ry="1"
         id="rect1646" />
      <rect
         style="fill:#87b158"
         width="20"
         height="12"
         x="22.000004"
         y="4.9999962"
         rx="1"
         ry="1"
         id="rect1648" />
      <path
         style="opacity:0.1;fill:#ffffff"
         d="m 23,-1 c -0.554,0 -1,0.446 -1,1 v 0.5 c 0,-0.554 0.446,-1 1,-1 h 5.5 c 1.5,0 2,2 3.5,2 h 9 c 0.554,0 1,0.446 1,1 V 2 C 42,1.446 41.554,1 41,1 h -9 c -1.5,0 -2,-2 -3.5,-2 z"
         id="path1650" />
    </g>
    <g
       id="g1666"
       style="display:inline"
       transform="matrix(0.49999999,0,0,0.49999999,32,37.5)">
      <rect
         style="opacity:0.2"
         width="20"
         height="12"
         x="-0.99999952"
         y="9.4999962"
         rx="1"
         ry="1"
         id="rect1654" />
      <path
         style="fill:#e19d00"
         d="m -0.9999998,17 c 0,0.554 0.44600005,1 1.0000001,1 H 18 c 0.554,0 1,-0.446 1,-1 V 6 C 19,5.446 18.554,5 18,5 H 9.0000002 c -1.5,0 -2,-2 -3.5,-2 H 3e-7 c -0.55400005,0 -1.0000001,0.446 -1.0000001,1"
         id="path1656" />
      <rect
         style="opacity:0.2"
         width="20"
         height="12"
         x="-0.99999952"
         y="8.499999"
         rx="1"
         ry="1"
         id="rect1658" />
      <rect
         style="fill:#e4e4e4"
         width="16"
         height="8"
         x="1.0000004"
         y="7.000001"
         rx="1"
         ry="1"
         id="rect1660" />
      <rect
         style="fill:#f9bd30"
         width="20"
         height="12"
         x="-0.99999952"
         y="8.9999962"
         rx="1"
         ry="1"
         id="rect1662" />
      <path
         style="opacity:0.1;fill:#ffffff"
         d="m 3e-7,3 c -0.55400005,0 -1.0000001,0.446 -1.0000001,1 v 0.5 c 0,-0.554 0.44600005,-1 1.0000001,-1 h 5.4999999 c 1.5,0 2,2 3.5,2 H 18 c 0.554,0 1,0.446 1,1 V 6 C 19,5.446 18.554,5 18,5 H 9.0000002 c -1.5,0 -2,-2 -3.5,-2 z"
         id="path1664" />
    </g>
    <g
       id="g1680"
       style="display:inline"
       transform="matrix(0.49999999,0,0,0.49999999,11,22)">
      <rect
         style="opacity:0.2"
         width="20"
         height="12"
         x="25"
         y="34.5"
         rx="1"
         ry="1"
         id="rect1668" />
      <path
         style="fill:#b34a00;fill-opacity:1"
         d="m 25.000001,42 c 0,0.554 0.446,1 1,1 h 18 c 0.554,0 1,-0.446 1,-1 V 31 c 0,-0.554 -0.446,-1 -1,-1 h -9 c -1.5,0 -2,-2 -3.5,-2 h -5.5 c -0.554,0 -1,0.446 -1,1"
         id="path1670" />
      <rect
         style="opacity:0.2"
         width="20"
         height="12"
         x="25"
         y="33.5"
         rx="1"
         ry="1"
         id="rect1672" />
      <rect
         style="fill:#e4e4e4"
         width="16"
         height="8"
         x="27"
         y="32"
         rx="1"
         ry="1"
         id="rect1674" />
      <rect
         style="fill:#fb6700;fill-opacity:1"
         width="20"
         height="12"
         x="25"
         y="34"
         rx="1"
         ry="1"
         id="rect1676" />
      <path
         style="opacity:0.1;fill:#ffffff"
         d="m 26.000001,28 c -0.554,0 -1,0.446 -1,1 v 0.5 c 0,-0.554 0.446,-1 1,-1 h 5.5 c 1.5,0 2,2 3.5,2 h 9 c 0.554,0 1,0.446 1,1 V 31 c 0,-0.554 -0.446,-1 -1,-1 h -9 c -1.5,0 -2,-2 -3.5,-2 z"
         id="path1678" />
    </g>
    <g
       id="g1694"
       transform="matrix(0.49999999,0,0,0.49999999,10.5,21)"
       style="display:inline">
      <rect
         style="display:inline;opacity:0.2"
         width="20"
         height="12"
         x="24"
         y="22.500002"
         rx="1"
         ry="1"
         id="rect1682" />
      <path
         style="display:inline;fill:#ec407a"
         d="m 24,30 c 0,0.554 0.446,1 1,1 h 18 c 0.554,0 1,-0.446 1,-1 V 19 c 0,-0.554 -0.446,-1 -1,-1 h -9 c -1.5,0 -2,-2 -3.5,-2 H 25 c -0.554,0 -1,0.446 -1,1"
         id="path1684" />
      <rect
         style="display:inline;opacity:0.2"
         width="20"
         height="12"
         x="24"
         y="21.49999"
         rx="1"
         ry="1"
         id="rect1686" />
      <rect
         style="display:inline;fill:#e4e4e4"
         width="16"
         height="8"
         x="26"
         y="19.99999"
         rx="1"
         ry="1"
         id="rect1688" />
      <rect
         style="display:inline;fill:#f06292"
         width="20"
         height="12"
         x="24"
         y="21.99999"
         rx="1"
         ry="1"
         id="rect1690" />
      <path
         style="display:inline;opacity:0.1;fill:#ffffff"
         d="m 25,16 c -0.554,0 -1,0.446 -1,1 v 0.5 c 0,-0.554 0.446,-1 1,-1 h 5.5 c 1.5,0 2,2 3.5,2 h 9 c 0.554,0 1,0.446 1,1 V 19 c 0,-0.554 -0.446,-1 -1,-1 h -9 c -1.5,0 -2,-2 -3.5,-2 z"
         id="path1692" />
    </g>
    <g
       id="g1708"
       transform="matrix(0.49999999,0,0,0.49999999,40.233963,23.85)"
       style="display:inline">
      <path
         id="path1696"
         style="display:inline;opacity:0.2"
         d="m -20.467926,4.7999997 c -0.554,0 -1,0.4460006 -1,1 V 15.8 c 0,0.553999 0.446,1 1,1 h 7 V 4.7999997 Z" />
      <path
         id="path1698"
         style="display:inline;fill:#5d399b"
         d="m -20.467926,-1.7000004 c -0.554,0 -1,0.4460006 -1,1.00000001 V 12.3 c 0,0.553999 0.446,1 1,1 h 7 V -0.9421879 c -0.423217,-0.4061819 -0.873692,-0.7578125 -1.5,-0.7578125 z" />
      <path
         id="path1700"
         style="display:inline;opacity:0.2"
         d="m -20.467926,3.7999997 c -0.554,0 -1,0.4460006 -1,1 V 14.8 c 0,0.553999 0.446,1 1,1 h 7 V 3.7999997 Z" />
      <path
         id="path1702"
         style="display:inline;fill:#e4e4e4"
         d="m -18.467926,2.2999997 c -0.554,0 -1,0.4460005 -1,1 v 6.0000001 c 0,0.5539995 0.446,1.0000002 1,1.0000002 h 5 V 2.2999997 Z" />
      <path
         id="path1704"
         style="display:inline;fill:#7e57c2"
         d="m -20.467926,4.2999997 c -0.554,0 -1,0.4460006 -1,1 V 15.3 c 0,0.553999 0.446,1 1,1 h 7 V 4.2999997 Z" />
      <path
         id="path1706"
         style="display:inline;opacity:0.1;fill:#ffffff"
         d="m -20.467926,-1.7000004 c -0.554,0 -1,0.4460006 -1,1.00000001 v 0.50000001 c 0,-0.55399945 0.446,-1.00000002 1,-1.00000002 h 5.5 c 0.626308,0 1.076783,0.35163061 1.5,0.75781251 V -0.9421879 c -0.423217,-0.4061819 -0.873692,-0.7578125 -1.5,-0.7578125 z" />
    </g>
  </g>
</svg>
