<?xml version="1.0" encoding="UTF-8" standalone="no"?>
<svg
   width="48"
   height="48"
   version="1"
   id="svg16"
   xmlns="http://www.w3.org/2000/svg"
   xmlns:svg="http://www.w3.org/2000/svg">
  <defs
     id="defs20" />
  <g
     id="layer1">
    <path
       id="rect2"
       style="display:inline;opacity:0.2"
       d="m 6,17 c -1.1079989,0 -2,0.892001 -2,2 v 22 c 0,1.107999 0.8920011,2 2,2 H 21.800781 A 16,16 0 0 1 19,34 16,16 0 0 1 35,18 16,16 0 0 1 44,20.775391 V 19 c 0,-1.107999 -0.892001,-2 -2,-2 z" />
    <path
       id="path4"
       style="display:inline;fill:#4877b1"
       d="M 6,6 C 4.8920011,6 4,6.8920011 4,8 v 26 c 0,1.107999 0.8920011,2 2,2 H 19.158203 A 16,16 0 0 1 19,34 16,16 0 0 1 35,18 16,16 0 0 1 44,20.779297 V 12 c 0,-1.107999 -0.892001,-2 -2,-2 H 24 C 21.000003,10 19.999997,6 17,6 Z" />
    <path
       id="rect6"
       style="display:inline;opacity:0.2"
       d="m 6,15 c -1.1079989,0 -2,0.892001 -2,2 v 22 c 0,1.107999 0.8920011,2 2,2 H 20.638672 A 16,16 0 0 1 19,34 16,16 0 0 1 35,18 16,16 0 0 1 44,20.775391 V 17 c 0,-1.107999 -0.892001,-2 -2,-2 z" />
    <path
       id="rect8"
       style="display:inline;fill:#e4e4e4"
       d="m 8,13 c -1.1079989,0 -2,0.892001 -2,2 v 12 c 0,1.107999 0.8920011,2 2,2 H 19.837891 A 16,16 0 0 1 35,18 16,16 0 0 1 42,19.615234 V 15 c 0,-1.107999 -0.892001,-2 -2,-2 z" />
    <path
       id="rect10"
       style="display:inline;fill:#5294e2"
       d="m 6,16 c -1.1079989,0 -2,0.892001 -2,2 v 22 c 0,1.107999 0.8920011,2 2,2 H 21.183594 A 16,16 0 0 1 19,34 16,16 0 0 1 35,18 16,16 0 0 1 44,20.775391 V 18 c 0,-1.107999 -0.892001,-2 -2,-2 z" />
    <path
       style="display:inline;opacity:0.1;fill:#ffffff"
       d="M 6,6 C 4.892,6 4,6.892 4,8 V 9 C 4,7.892 4.892,7 6,7 h 11 c 3,0 4,4 7,4 h 18 c 1.108,0 2,0.892 2,2 v -1 c 0,-1.108 -0.892,-2 -2,-2 H 24 C 21,10 20,6 17,6 Z"
       id="path12" />
  </g>
  <g
     id="layer9"
     style="display:inline">
    <path
       style="display:inline;opacity:0.8;fill:#4877b1;fill-opacity:1;stroke-width:3.02361"
       d="m 43,30 c 0,-3 -2,-6 -5,-7 v 1 7 h -6 v -7 -1 c -3,1 -5,4 -5,7 0,3 2,6 5,7 v 8 h 3 3 v -8 c 3,-1 5,-4 5,-7 z"
       id="path2422" />
  </g>
</svg>
